<?xml version="1.0" encoding="utf-8"?>
<!-- Generator: Adobe Illustrator 16.0.0, SVG Export Plug-In . SVG Version: 6.00 Build 0)  -->
<!DOCTYPE svg PUBLIC "-//W3C//DTD SVG 1.1//EN" "http://www.w3.org/Graphics/SVG/1.1/DTD/svg11.dtd">
<svg version="1.1" id="Layer_1" xmlns="http://www.w3.org/2000/svg" xmlns:xlink="http://www.w3.org/1999/xlink" x="0px" y="0px"
	 width="35.625px" height="35.653px" viewBox="-6.375 -4.966 35.625 35.653" enable-background="new -6.375 -4.966 35.625 35.653"
	 xml:space="preserve">
<g id="surface1">
	<path fill="#FFFFFF" stroke="#FFFFFF" stroke-miterlimit="10" d="M28.5,12c0-9.12-7.38-16.5-16.5-16.5C2.879-4.5-4.5,2.88-4.5,12
		c0,9.039,7.315,16.5,16.5,16.5C21.142,28.5,28.5,21.082,28.5,12z M12-2.566c8.029,0,14.566,6.537,14.566,14.566
		c0,2.938-0.876,5.764-2.492,8.153c-6.51-6.998-17.628-7.009-24.148,0c-1.617-2.39-2.492-5.215-2.492-8.153
		C-2.566,3.971,3.971-2.566,12-2.566z M1.135,21.7c5.784-6.488,15.947-6.488,21.73,0C17.06,28.194,6.94,28.199,1.135,21.7z"/>
	<path fill="#FFFFFF" stroke="#FFFFFF" stroke-miterlimit="10" d="M12,12.966c3.201,0,5.801-2.599,5.801-5.8V5.232
		c0-3.201-2.6-5.801-5.801-5.801s-5.801,2.6-5.801,5.801v1.934C6.199,10.367,8.799,12.966,12,12.966z M8.133,5.232
		C8.133,3.1,9.868,1.365,12,1.365c2.133,0,3.867,1.735,3.867,3.867v1.934c0,2.132-1.734,3.867-3.867,3.867
		c-2.132,0-3.867-1.735-3.867-3.867V5.232z"/>
</g>
</svg>
