<?xml version="1.0" encoding="utf-8"?>
<!-- Generator: Adobe Illustrator 16.0.0, SVG Export Plug-In . SVG Version: 6.00 Build 0)  -->
<!DOCTYPE svg PUBLIC "-//W3C//DTD SVG 1.1//EN" "http://www.w3.org/Graphics/SVG/1.1/DTD/svg11.dtd">
<svg version="1.1" id="Layer_1" xmlns="http://www.w3.org/2000/svg" xmlns:xlink="http://www.w3.org/1999/xlink" x="0px" y="0px"
	 width="18.063px" height="17.063px" viewBox="-0.926 -0.771 18.063 17.063" enable-background="new -0.926 -0.771 18.063 17.063"
	 xml:space="preserve">
<g id="edit" transform="translate(-317.967 -363.927)">
	<path id="Path_1" fill="#FFFFFF" stroke="#FFFFFF" stroke-miterlimit="10" d="M332.573,373.072c-0.224,0.006-0.4,0.191-0.395,0.416
		l0,0v3.693c0.018,0.67-0.512,1.229-1.182,1.248h-11.059c-0.671-0.02-1.2-0.578-1.184-1.248v-10.84
		c-0.019-0.672,0.511-1.233,1.184-1.252h3.5c0.229-0.016,0.402-0.215,0.387-0.445c-0.015-0.208-0.18-0.373-0.387-0.387h-3.5
		c-1.12,0.032-2.002,0.964-1.972,2.084v10.84c-0.027,1.117,0.854,2.047,1.972,2.08h11.058c1.117-0.033,1.999-0.963,1.971-2.08
		v-3.692C332.974,373.265,332.797,373.08,332.573,373.072L332.573,373.072L332.573,373.072z"/>
	<path id="Path_2" fill="#FFFFFF" stroke="#FFFFFF" stroke-miterlimit="10" d="M333.513,364.408c-0.71-0.64-1.789-0.64-2.5,0
		l-7.009,6.5c-0.047,0.043-0.081,0.099-0.1,0.16l-0.922,3.087c-0.038,0.128,0.001,0.266,0.1,0.354
		c0.104,0.095,0.248,0.13,0.383,0.094l3.327-0.854c0.064-0.017,0.124-0.048,0.173-0.094l3.689-3.423l3.319-3.08
		c0.641-0.575,0.694-1.561,0.119-2.202c-0.038-0.042-0.077-0.081-0.119-0.119L333.513,364.408z M324.86,371.148l5.735-5.322
		l1.851,1.716l-5.736,5.325L324.86,371.148z M324.49,371.836l1.478,1.371l-2.044,0.526L324.49,371.836z M333.418,366.636
		l-0.417,0.387l-1.85-1.717l0.417-0.387c0.395-0.356,0.994-0.356,1.389,0l0.461,0.428c0.357,0.319,0.388,0.867,0.068,1.224
		c-0.021,0.024-0.044,0.047-0.068,0.069V366.636z"/>
</g>
</svg>
