<?xml version="1.0" encoding="utf-8"?>
<!-- Generator: Adobe Illustrator 16.0.0, SVG Export Plug-In . SVG Version: 6.00 Build 0)  -->
<!DOCTYPE svg PUBLIC "-//W3C//DTD SVG 1.1//EN" "http://www.w3.org/Graphics/SVG/1.1/DTD/svg11.dtd">
<svg version="1.1" id="Capa_1" xmlns="http://www.w3.org/2000/svg" xmlns:xlink="http://www.w3.org/1999/xlink" x="0px" y="0px"
	 width="22.369px" height="21.25px" viewBox="0 447.25 22.369 21.25" enable-background="new 0 447.25 22.369 21.25"
	 xml:space="preserve">
<path d="M21.932,464.975H18.36c-0.241,0-0.437-0.196-0.437-0.438s0.196-0.437,0.437-0.437h3.571c0.241,0,0.437,0.195,0.437,0.437
	S22.173,464.975,21.932,464.975z"/>
<path d="M14.41,464.975h-3.571c-0.241,0-0.437-0.196-0.437-0.438s0.196-0.437,0.437-0.437h3.571c0.241,0,0.437,0.195,0.437,0.437
	S14.651,464.975,14.41,464.975z"/>
<path d="M16.393,464.975c-0.183,0-0.349-0.118-0.411-0.29c-0.062-0.169-0.009-0.364,0.128-0.48c0.144-0.121,0.354-0.136,0.513-0.037
	c0.153,0.095,0.233,0.279,0.198,0.456C16.781,464.824,16.599,464.975,16.393,464.975z"/>
<path d="M21.932,462.691H10.839c-0.241,0-0.437-0.195-0.437-0.437s0.196-0.437,0.437-0.437h11.093c0.241,0,0.437,0.195,0.437,0.437
	S22.173,462.691,21.932,462.691z"/>
<path d="M21.932,467.257H10.839c-0.241,0-0.437-0.195-0.437-0.437s0.196-0.438,0.437-0.438h11.093c0.241,0,0.437,0.196,0.437,0.438
	S22.173,467.257,21.932,467.257z"/>
<path d="M8.738,448.798H0.437c-0.241,0-0.437,0.195-0.437,0.437v17.586c0,0.241,0.196,0.437,0.437,0.437h8.301
	c0.241,0,0.437-0.195,0.437-0.437v-17.586C9.174,448.993,8.979,448.798,8.738,448.798L8.738,448.798z M0.874,449.672h7.427v12.15
	H0.874V449.672z M8.301,466.383H0.874v-3.687h7.427V466.383z"/>
<path d="M15.271,460.417h-4.432c-0.241,0-0.437-0.195-0.437-0.437v-4.325c0-0.241,0.196-0.438,0.437-0.438h4.432
	c0.241,0,0.437,0.196,0.437,0.438v4.325C15.708,460.222,15.512,460.417,15.271,460.417z M11.276,459.543h3.559v-3.451h-3.559
	V459.543z"/>
<path d="M21.932,460.417h-4.433c-0.241,0-0.437-0.195-0.437-0.437v-4.325c0-0.241,0.195-0.438,0.437-0.438h4.433
	c0.241,0,0.437,0.196,0.437,0.438v4.325C22.369,460.222,22.173,460.417,21.932,460.417z M17.936,459.543h3.559v-3.451h-3.559
	V459.543z"/>
<path d="M21.932,453.997H10.839c-0.241,0-0.437-0.196-0.437-0.438v-4.325c0-0.241,0.196-0.437,0.437-0.437h11.093
	c0.241,0,0.437,0.195,0.437,0.437v4.325C22.369,453.801,22.173,453.997,21.932,453.997z M11.276,453.123h10.219v-3.451H11.276
	V453.123z"/>
</svg>
