<svg xmlns="http://www.w3.org/2000/svg" width="27.623" height="18" style=""><rect id="backgroundrect" width="100%" height="100%" x="0" y="0" fill="none" stroke="none"/><g class="currentLayer" style=""><title>Layer 1</title><g id="svg_1" class="selected" fill="#ffffff" fill-opacity="1"><path d="M25.811000000000035,10.822999618530275 h-24 A1.8170000000000002,1.8170000000000002 0 0 1 0,9.010999618530263 h0 a1.8170000000000002,1.8170000000000002 0 0 1 1.811,-1.811 h24 a1.8170000000000002,1.8170000000000002 0 0 1 1.811,1.811 h0 A1.8170000000000002,1.8170000000000002 0 0 1 25.811000000000035,10.822999618530275 z" fill="#ffffff" id="svg_2" fill-opacity="1"/><path d="M19.019000000000005,17.999998901367178 H1.8110000000000355 A1.8170000000000002,1.8170000000000002 0 0 1 0,16.187998901367195 h0 a1.8170000000000002,1.8170000000000002 0 0 1 1.811,-1.811 h17.208 a1.8170000000000002,1.8170000000000002 0 0 1 1.811,1.811 h0 A1.8170000000000002,1.8170000000000002 0 0 1 19.019000000000005,17.999998901367178 z" fill="#ffffff" id="svg_3" fill-opacity="1"/><path d="M14.490999999999985,3.6230000000000047 H1.8110000000000355 A1.8170000000000002,1.8170000000000002 0 0 1 0,1.811000000000007 h0 A1.8170000000000002,1.8170000000000002 0 0 1 1.8110000000000355,0 h12.679 a1.8170000000000002,1.8170000000000002 0 0 1 1.811,1.811 h0 A1.8170000000000002,1.8170000000000002 0 0 1 14.490999999999985,3.6230000000000047 z" fill="#ffffff" id="svg_4" fill-opacity="1"/></g></g></svg>