<?xml version="1.0" encoding="utf-8"?>
<!-- Generator: Adobe Illustrator 16.0.0, SVG Export Plug-In . SVG Version: 6.00 Build 0)  -->
<!DOCTYPE svg PUBLIC "-//W3C//DTD SVG 1.1//EN" "http://www.w3.org/Graphics/SVG/1.1/DTD/svg11.dtd">
<svg version="1.1" id="Capa_1" xmlns="http://www.w3.org/2000/svg" xmlns:xlink="http://www.w3.org/1999/xlink" x="0px" y="0px"
	 width="10.562px" height="16.658px" viewBox="72.806 385.336 10.562 16.658" enable-background="new 72.806 385.336 10.562 16.658"
	 xml:space="preserve">
<g>
	<path d="M83.392,389.027c-0.071-0.072-0.163-0.107-0.273-0.107h-2.036c-0.135-0.659-0.389-1.23-0.762-1.715h2.774
		c0.111,0,0.202-0.035,0.274-0.106c0.071-0.071,0.106-0.163,0.106-0.274v-1.215c0-0.111-0.036-0.202-0.106-0.273
		c-0.072-0.071-0.163-0.107-0.274-0.107h-9.907c-0.111,0-0.202,0.036-0.274,0.107c-0.071,0.071-0.107,0.162-0.107,0.273v1.584
		c0,0.104,0.038,0.192,0.113,0.268c0.075,0.075,0.165,0.113,0.268,0.113h1.727c1.675,0,2.739,0.448,3.191,1.346h-4.918
		c-0.111,0-0.203,0.035-0.274,0.106c-0.071,0.072-0.107,0.163-0.107,0.274v1.215c0,0.11,0.036,0.202,0.107,0.273
		c0.072,0.071,0.163,0.107,0.274,0.107h5.084c-0.174,0.65-0.582,1.146-1.22,1.488c-0.639,0.341-1.482,0.512-2.53,0.512h-1.334
		c-0.103,0-0.192,0.038-0.268,0.113c-0.076,0.075-0.113,0.165-0.113,0.268v1.513c0,0.104,0.036,0.19,0.107,0.262
		c1.524,1.62,3.501,3.886,5.93,6.8c0.071,0.095,0.17,0.143,0.297,0.143h2.322c0.167,0,0.282-0.071,0.345-0.215
		c0.079-0.143,0.064-0.277-0.048-0.404c-2.317-2.842-4.14-4.97-5.465-6.383c1.35-0.158,2.445-0.595,3.287-1.31
		c0.841-0.714,1.354-1.644,1.536-2.786h2c0.111,0,0.202-0.036,0.273-0.107c0.072-0.071,0.107-0.162,0.107-0.273v-1.215
		C83.499,389.189,83.463,389.099,83.392,389.027z"/>
</g>
</svg>
