<?xml version="1.0" encoding="utf-8"?>
<!-- Generator: Adobe Illustrator 16.0.0, SVG Export Plug-In . SVG Version: 6.00 Build 0)  -->
<!DOCTYPE svg PUBLIC "-//W3C//DTD SVG 1.1//EN" "http://www.w3.org/Graphics/SVG/1.1/DTD/svg11.dtd">
<svg version="1.1" id="Layer_1" xmlns="http://www.w3.org/2000/svg" xmlns:xlink="http://www.w3.org/1999/xlink" x="0px" y="0px"
	 width="22.875px" height="23.625px" viewBox="0 679 22.875 23.625" enable-background="new 0 679 22.875 23.625"
	 xml:space="preserve">
<g>
	<g>
		<path d="M22.105,681.395c0.001-0.403-0.154-0.782-0.439-1.067c-0.284-0.284-0.664-0.439-1.067-0.438
			c-0.402,0.002-0.781,0.16-1.067,0.445c-0.121,0.121-0.341,0.382-0.461,0.527c-0.126,0.152-0.105,0.378,0.047,0.504
			c0.152,0.126,0.378,0.105,0.504-0.047c0.188-0.227,0.344-0.405,0.416-0.478c0.151-0.151,0.351-0.235,0.563-0.235
			c0.001,0,0.002,0,0.003,0c0.21,0,0.407,0.081,0.554,0.229c0.148,0.148,0.23,0.347,0.229,0.558
			c-0.001,0.212-0.084,0.412-0.236,0.563c-0.135,0.135-0.6,0.504-1.265,0.969c-0.394-0.674-1.124-1.127-1.959-1.127h-5.244
			c-0.708,0-1.373,0.275-1.874,0.776L0.329,693.056C0.117,693.268,0,693.549,0,693.849s0.117,0.582,0.329,0.794l7.023,7.022
			c0.219,0.219,0.506,0.328,0.793,0.328c0.288,0,0.575-0.109,0.793-0.328l10.482-10.482c0.5-0.5,0.776-1.166,0.776-1.874v-5.243
			c0-0.155-0.016-0.307-0.045-0.452c0.758-0.521,1.314-0.958,1.508-1.152C21.945,682.176,22.103,681.797,22.105,681.395z
			 M19.48,689.309c0,0.517-0.201,1.003-0.566,1.368L8.432,701.158c-0.158,0.158-0.416,0.158-0.574,0l-7.023-7.022
			c-0.077-0.077-0.119-0.179-0.119-0.287s0.042-0.21,0.119-0.287l10.482-10.482c0.365-0.365,0.851-0.566,1.367-0.566h5.244
			c0.589,0,1.102,0.33,1.365,0.814c-0.423,0.28-0.897,0.578-1.399,0.871c-0.016-0.018-0.032-0.034-0.048-0.051
			c-0.586-0.587-1.541-0.587-2.127,0s-0.586,1.541,0,2.127c0.293,0.293,0.678,0.44,1.063,0.44s0.771-0.147,1.063-0.44
			c0.392-0.392,0.521-0.946,0.39-1.447c0.437-0.254,0.857-0.514,1.244-0.766c0,0.001,0,0.002,0,0.004V689.309L19.48,689.309z
			 M16.463,685.372c0.063,0.125,0.189,0.197,0.32,0.197c0.054,0,0.109-0.013,0.161-0.038c0.21-0.106,0.419-0.216,0.626-0.328
			c0.002,0.204-0.074,0.409-0.23,0.565c-0.307,0.307-0.807,0.307-1.114,0c-0.307-0.308-0.307-0.808,0-1.114
			c0.154-0.154,0.355-0.23,0.557-0.23c0.16,0,0.319,0.049,0.455,0.145c-0.203,0.11-0.409,0.219-0.616,0.323
			C16.445,684.979,16.374,685.195,16.463,685.372z"/>
	</g>
</g>
<g>
	<g>
		<path d="M10.671,687.184c-0.198,0-0.358,0.16-0.358,0.357v7.563c0,0.198,0.161,0.358,0.358,0.358s0.358-0.16,0.358-0.358v-7.563
			C11.029,687.344,10.869,687.184,10.671,687.184z"/>
	</g>
</g>
<g>
	<g>
		<path d="M9.033,690.26c-0.586-0.587-1.541-0.587-2.127,0c-0.586,0.586-0.586,1.54,0,2.127c0.293,0.293,0.678,0.439,1.063,0.439
			s0.771-0.146,1.063-0.439c0.284-0.284,0.44-0.662,0.44-1.063C9.474,690.921,9.317,690.543,9.033,690.26z M8.527,691.88
			c-0.307,0.308-0.807,0.308-1.114,0c-0.307-0.307-0.307-0.807,0-1.114c0.154-0.153,0.355-0.23,0.557-0.23s0.403,0.077,0.557,0.23
			c0.149,0.149,0.231,0.347,0.231,0.558C8.758,691.533,8.676,691.731,8.527,691.88z"/>
	</g>
</g>
<g>
	<g>
		<path d="M14.436,690.26c-0.586-0.587-1.541-0.587-2.127,0c-0.586,0.586-0.586,1.54,0,2.127c0.293,0.293,0.678,0.439,1.063,0.439
			s0.771-0.146,1.063-0.439C15.022,691.8,15.022,690.846,14.436,690.26z M13.929,691.88c-0.308,0.308-0.807,0.308-1.114,0
			c-0.307-0.307-0.307-0.807,0-1.114c0.153-0.153,0.355-0.23,0.557-0.23s0.403,0.077,0.557,0.23
			C14.236,691.073,14.236,691.573,13.929,691.88z"/>
	</g>
</g>
</svg>
