<?xml version="1.0" encoding="utf-8"?>
<!-- Generator: Adobe Illustrator 16.0.0, SVG Export Plug-In . SVG Version: 6.00 Build 0)  -->
<!DOCTYPE svg PUBLIC "-//W3C//DTD SVG 1.1//EN" "http://www.w3.org/Graphics/SVG/1.1/DTD/svg11.dtd">
<svg version="1.1" id="Layer_1" xmlns="http://www.w3.org/2000/svg" xmlns:xlink="http://www.w3.org/1999/xlink" x="0px" y="0px"
	 width="24.5px" height="24.836px" viewBox="0 678.164 24.5 24.836" enable-background="new 0 678.164 24.5 24.836"
	 xml:space="preserve">
<g>
	<g>
		<path d="M22.86,701.183l-6.999-6.999c1.454-1.614,2.347-3.741,2.347-6.079c0-5.021-4.084-9.104-9.104-9.104S0,683.084,0,688.104
			c0,5.02,4.084,9.104,9.104,9.104c2.338,0,4.466-0.894,6.08-2.347l6.998,6.998c0.094,0.094,0.216,0.141,0.339,0.141
			s0.245-0.047,0.339-0.141C23.047,701.672,23.047,701.369,22.86,701.183z M9.104,696.25c-4.491,0-8.146-3.654-8.146-8.146
			c0-4.492,3.654-8.146,8.146-8.146c4.492,0,8.146,3.654,8.146,8.146C17.25,692.596,13.596,696.25,9.104,696.25z"/>
	</g>
</g>
</svg>
